<svg id="Layer_1" data-name="Layer 1" xmlns="http://www.w3.org/2000/svg" viewBox="0 0 512 512"><title>music-note-outline</title><path d="M478.46,404.72q0,26.34-20.79,42.41-22.2,16.64-52.4,16.63-26.89,0-47.95-12.48-25-15-25-40.19,0-25.5,25-40.19,21.05-12.75,47.95-12.75A103.61,103.61,0,0,1,425,360.09l4.71,1.11V131.68L179.91,171.87V453q0,26.34-21.06,42.13Q136.65,512,106.73,512q-27.17,0-48.24-12.75-24.94-14.69-24.94-40.19,0-25.22,24.94-39.92,21.07-12.75,48.24-12.75a98.82,98.82,0,0,1,19.4,1.95l4.71.83V56L478.46,0ZM429.67,57.66,179.91,97.85v24.39L429.67,82.05Z"/></svg>